<?xml version="1.0" encoding="utf-8"?>
<!DOCTYPE svg PUBLIC "-//W3C//DTD SVG 1.1//EN" "http://www.w3.org/Graphics/SVG/1.1/DTD/svg11.dtd">
<svg version="1.1" id="icon_x5F_gw_x5F_landing_x5F_check"
	 xmlns="http://www.w3.org/2000/svg" xmlns:xlink="http://www.w3.org/1999/xlink" x="0px" y="0px" width="60px" height="60px"
	 viewBox="160 -28 200 200" enable-background="new 160 -28 200 200" xml:space="preserve">
	<g>
		<g>
			<path fill="#389683" d="M307.414,49.022c-10.278-2.576-4.636-5.16-4.636-5.16c22.778-13.83-12.491-22.271-18.337-25.321
				c-5.844-3.048-19.758-8.665-25.793,0.229c-6.06,8.922-8.664,4.927-8.664,4.927c-9.674-9.136-11.894-6.791-14.929-3.747
				c-3.009,3.057-9.878,10.08-9.878,10.08c-14.514,8.451-8.251,19.939-8.251,19.939c-12.713,5.402-0.401,18.064-0.401,18.064
				c-41.331,35.417,22.968,47.864,27.798,32.365c0.884-2.83,1.688-4.977,2.41-6.616c5.505,6.423,13.729,22.859,2.832,58.963
				c0,0,12.208,1.878,22.543-0.23c0,0-16.853-42.532,5.034-61.042c11.601,12.655,31.079,12.934,40.141-1.617
				C327.357,73.665,317.696,51.606,307.414,49.022z M260.35,95.911c-1.192,8.112-5.852,0.338-10.507-5.662
				c-0.21-0.273-0.358-0.436-0.549-0.674c1.524-1.434,2.284,0.034,2.284,0.034c3.67,6.484,7.099,5.938,9.137,4.636
				C260.592,94.794,260.436,95.348,260.35,95.911z M268.7,97.922c-2.112,3.136-6.12,2.876-3.786-8.787
				c5.475-6.914,8.635-2.335,8.635-2.335c0.621,0.998,1.297,1.934,1.999,2.835C273.946,91.417,270.35,95.49,268.7,97.922z"/>
			<path fill="#389683" d="M360,71.998C360,127.214,315.232,172,259.996,172C204.759,172,160,127.214,160,71.998
				C160,16.751,204.762-28,259.996-28C315.23-28,360,16.751,360,71.998z M259.996-9.426c-44.958,0-81.402,36.453-81.402,81.428
				c0,44.953,36.444,81.421,81.402,81.421c44.968,0,81.413-36.468,81.413-81.421C341.408,27.027,304.966-9.426,259.996-9.426z"/>
		</g>
	</g>
</svg>
